<svg t="1567502831041" class="icon" viewBox="0 0 1024 1024" version="1.1" xmlns="http://www.w3.org/2000/svg" p-id="1131" width="32" height="32"><path d="M511.774217 193.270028c-26.642364 18.96575-53.585771 38.834632-79.02396 59.004557l40.33985 4.96722c14.600617-24.234014 27.696016-46.511245 38.68411-63.971777zM607.5061 670.273703c-5.719829 43.952374-10.084963 86.098486-12.192268 129.599294C622.257239 776.692636 647.243863 752.609143 669.370572 731.084522l2.107305-2.107306 8.278701-8.278701a556.930766 556.930766 0 0 0-72.250478-50.424812z" p-id="1132"></path><path d="M352.393557 551.930371a26.190798 32.061149 24.29 1 0 26.377046-58.445878 26.190798 32.061149 24.29 1 0-26.377046 58.445878Z" p-id="1133"></path><path d="M421.46112 583.57313a91.818315 91.818315 0 0 1-69.541085 35.071586 2506.338968 2506.338968 0 0 0-129.599294 373.444656 303.903572 303.903572 0 0 0 69.240041-13.697486c11.138615-3.31148 21.976187-7.225048 32.813759-11.138615l10.235484-3.913568c7.526091-2.859915 15.052183-5.870351 22.427752-9.03131l11.138616-4.96722 21.374099-10.084963 10.235485-5.117742q11.891224-6.020873 23.481405-12.493311l6.924004-3.763046c20.470969-11.590181 40.490372-24.083493 60.208732-37.02837l6.020873-4.214611q11.289137-7.676613 22.27723-15.052183l7.225048-5.268264 20.621491-15.052183 4.064089-3.160958c5.569308-50.424813 13.697486-118.310157 24.083493-185.593415A1218.173159 1218.173159 0 0 0 421.46112 583.57313zM281.626341 540.82493c-6.773482-1.505218-13.095399-2.859915-18.363663-3.763046a185.743936 185.743936 0 0 0-54.187858-1.354696c-3.160958 8.429222-6.020873 16.707923-9.03131 24.535058C178.067323 618.343672 117.407026 789.938557 117.407026 824.859621c0 19.71836-13.245921 87.754226 15.052183 130.953991 41.544025-91.36675 103.70954-226.685874 168.73497-361.252389a87.754226 87.754226 0 0 1-19.567838-53.736293zM383.228576 427.18095c25.739233-50.725856 50.725856-98.441276 73.755696-139.985301a281.927385 281.927385 0 0 0-58.251948-6.62296c-15.052183 13.396443-30.104366 26.642364-43.952374 39.58724a590.346612 590.346612 0 0 0-120.417463 155.188006 529.987359 529.987359 0 0 1 61.71395 6.020873 95.882405 95.882405 0 0 1 87.152139-54.187858z" p-id="1134"></path><path d="M660.492664 342.009296a24.986624 31.760106 13.93 1 0 15.291619-61.652118 24.986624 31.760106 13.93 1 0-15.291619 61.652118Z" p-id="1135"></path><path d="M839.911804 433.954432l-6.472439-3.763046-13.697486-7.827135-8.128179-4.365133-13.848008-7.225048-9.03131-4.515655-15.052183-6.924004-9.181832-4.214611-15.052182-7.074526-8.880788-3.913567-17.159489-7.827135-7.977657-3.311481a70.745259 70.745259 0 0 1-63.219168 27.093929c-6.321917 25.889755-11.740703 51.478465-15.052183 76.164046-6.321917 42.597677-12.34279 80.980744-17.761575 117.105982 54.940467 24.384536 101.602234 46.360723 125.685727 57.800383l0.903131-1.053653 15.052182-17.611054A593.808614 593.808614 0 0 0 857.974423 445.544613c-5.719829-3.913568-11.740703-7.676613-18.062619-11.590181zM595.614876 328.739674L559.038071 316.09584l-7.225047-2.408349-9.934441-2.709393-9.783919-3.160959-6.62296-2.107305-15.804792-4.666177-5.268264-1.505218-12.944878 24.384536-5.569307 10.837572-7.37557 15.052183-7.676613 15.052183-5.117742 10.084962-9.783919 19.417316q-13.095399 26.491842-26.943407 55.392033a91.667794 91.667794 0 0 1 19.868881 74.05674c45.156549 16.557401 92.871968 36.426283 137.727473 55.843598 5.418786-30.104366 11.439659-58.552991 17.611054-83.690137 7.526091-30.104366 16.557401-65.476995 26.642364-102.956931a79.626047 79.626047 0 0 1-35.222108-64.27282zM678.702925 221.568132c18.062619-60.208731 36.727326-119.36381 54.789946-168.283405-10.235484 4.666177-21.073056 10.084963-32.663237 16.557401 0 0-41.092459 24.68558-97.237101 61.412907-19.868881 30.104366-46.812289 73.304131-79.325004 132.158165l21.825665 2.558871c19.71836 2.257827 39.587241 5.719829 59.155079 9.783919a81.883875 81.883875 0 0 1 73.454652-54.187858zM786.476554 34.921064c-15.052183 32.813759-49.220638 106.870498-81.432309 194.173159a85.496399 85.496399 0 0 1 34.620021 87.001617 1289.219462 1289.219462 0 0 1 137.877995 60.208732 588.991915 588.991915 0 0 0 16.707923-126.438337c1.053653-103.860062 10.235484-239.781273-107.77363-214.945171z" p-id="1136"></path></svg>