<svg t="1568097520075" class="icon" viewBox="0 0 1024 1024" version="1.1" xmlns="http://www.w3.org/2000/svg" p-id="5609" width="32" height="32"><path d="M334.944768 264.4992c0-63.8976-0.3072-127.8976 0-191.7952 0.2048-44.032 28.9792-72.192 74.3424-72.3968C476.461568-0.1024 543.533568 0 610.707968 0.2048c50.7904 0.1024 78.5408 27.3408 78.5408 77.0048 0.1024 126.464 0.512 252.928-0.512 379.1872-0.1024 18.1248 4.9152 22.016 22.9376 21.7088 69.4272-1.024 138.752-0.1024 208.0768-0.6144 21.504-0.1024 39.8336 3.8912 49.5616 24.3712 9.728 20.48-2.1504 35.0208-15.1552 49.4592L551.623168 1001.7792c-26.624 29.696-52.6336 29.696-79.36-0.3072C337.607168 850.944 203.053568 700.0064 68.295168 549.376 55.699968 535.2448 45.562368 521.216 54.983168 501.76c9.5232-19.456 26.7264-24.2688 47.5136-24.1664 71.4752 0.3072 143.0528-0.2048 214.6304 0.512 14.6432 0.2048 18.3296-3.7888 18.1248-17.5104-0.7168-65.3312-0.3072-130.6624-0.3072-195.9936z" fill="#3BD19F" p-id="5610"></path></svg>