<svg t="1568003696568" class="icon" viewBox="0 0 1024 1024" version="1.1" xmlns="http://www.w3.org/2000/svg" p-id="4849" width="32" height="32"><path d="M512 512m-487.619048 0a487.619048 487.619048 0 1 0 975.238096 0 487.619048 487.619048 0 1 0-975.238096 0Z" fill="#FF2F78" opacity=".099" p-id="4850"></path><path d="M722.968381 446.293333l-24.30781 7.753143c-6.41219 2.608762-14.043429-1.26781-16.627809-7.753143-2.56-6.460952 1.26781-14.165333 7.68-16.774095l24.307809-7.753143c6.41219-2.608762 14.043429 1.26781 16.62781 7.753143 2.511238 7.753143-1.316571 15.506286-7.68 16.774095zM334.262857 426.910476c6.41219 2.608762 10.191238 9.020952 7.68 16.798476a15.481905 15.481905 0 0 1-16.627809 7.753143l-24.30781-7.753143a12.970667 12.970667 0 0 1-7.68-16.798476c2.584381-6.460952 8.94781-10.288762 16.62781-7.753143l24.307809 7.753143z m295.302095-110.982095c3.85219-5.144381 11.53219-6.485333 17.895619-2.608762 5.095619 3.900952 6.339048 11.629714 2.56 18.041905l-15.36 20.675047c-3.82781 5.144381-11.50781 6.485333-17.871238 2.608762-5.12-3.900952-6.363429-12.921905-2.584381-18.041904l15.36-20.675048z m-239.079619 34.840381l-15.36-21.942857c-3.82781-5.12-2.56-12.897524 2.584381-18.041905 6.41219-3.900952 14.043429-2.608762 17.895619 3.876571l15.36 20.650667c3.82781 5.144381 2.56 14.189714-2.584381 18.041905-6.363429 3.900952-14.043429 2.608762-17.895619-2.584381z m109.958096-43.885714V281.112381c0-7.753143 5.095619-12.897524 12.775619-12.897524 7.68 0 12.775619 5.144381 12.775619 12.921905v25.795048c0 7.753143-5.12 12.921905-12.775619 12.921904-7.631238 0-12.8-5.168762-12.8-12.921904z m140.653714 193.633523v129.097143H385.414095V500.540952c0-70.997333 57.539048-129.097143 127.878095-129.097142 70.265905 0 127.829333 58.09981 127.829334 129.097142z m-281.283048 180.711619v-25.795047h306.834286v25.795047c0 14.189714-11.50781 25.819429-25.551238 25.819429H385.414095a25.795048 25.795048 0 0 1-25.575619-25.819429z" fill="#FF2F78" p-id="4851"></path></svg>