<svg t="1567567355105" class="icon" viewBox="0 0 1024 1024" version="1.1" xmlns="http://www.w3.org/2000/svg" p-id="2401" width="32" height="32"><path d="M1024 122.688C1024 92.608 995.328 64 960 64H64C28.672 64 0 92.672 0 122.688v586.624C0 739.392 28.672 768 64 768h896c35.328 0 64-28.672 64-58.688V122.688z m-64 586.624H64V122.688h896v586.624zM0 928c0 21.12 47.552 32 64 32h896c54.208 0 64-10.88 64-32v-32H0v32z" p-id="2402"></path><path d="M461.44 533.44c10.24 12.48 29.312 12.8 39.936 0.64L712.96 293.76l75.584 89.152a26.24 26.24 0 0 0 39.936-33.856l-95.168-112.32a26.24 26.24 0 0 0-39.68-0.384l-211.2 240-116.48-142.016a26.24 26.24 0 0 0-41.28 1.024L197.952 505.6A26.24 26.24 0 0 0 240 536.832l106.688-143.36L461.44 533.376z" p-id="2403"></path></svg>