<svg t="1568009703342" class="icon" viewBox="0 0 1024 1024" version="1.1" xmlns="http://www.w3.org/2000/svg" p-id="5357" width="32" height="32"><path d="M797.405623 797.330286V567.954286H682.717623v229.376h114.688z m-229.376 0V226.742857h-111.908572V797.257143h111.908572z m-226.596572 0V397.312H226.745051v400.091429h114.688zM909.387337 0c30.939429 0 57.782857 11.410286 80.530286 34.157714 22.747429 22.674286 34.157714 49.590857 34.157714 80.530286v794.624c0 30.939429-11.410286 57.782857-34.157714 80.530286-22.674286 22.747429-49.590857 34.157714-80.530286 34.157714H114.763337c-30.939429 0-57.782857-11.410286-80.530286-34.157714A110.08 110.08 0 0 1 0.075337 909.312V114.688C0.075337 83.748571 11.485623 56.905143 34.233051 34.157714 56.907337 11.410286 83.823909 0 114.763337 0h794.624z" fill="#0091F2" p-id="5358"></path></svg>