<svg t="1567502234743" class="icon" viewBox="0 0 1024 1024" version="1.1" xmlns="http://www.w3.org/2000/svg" p-id="14148" width="200" height="200"><path d="M894.122667 152.784593H148.840296c-15.075556 0-26.908444 12.231111-26.908444 26.908444V667.306667c0 15.075556 12.231111 26.908444 26.908444 26.908444h113.758815c8.154074 0 15.890963-3.678815 21.200593-10.202074l151.665777-187.941926 69.30963 57.078519c10.998519 8.969481 27.306667 8.154074 37.091556-2.465186l134.542222-145.123555c13.046519 8.154074 28.539259 12.629333 44.847407 12.629333a86.907259 86.907259 0 0 0 86.850371-86.85037 86.907259 86.907259 0 0 0-86.850371-86.831408 86.907259 86.907259 0 0 0-86.85037 86.850371c0 11.415704 2.465185 22.414222 6.542222 32.616296L519.016296 496.071111l-70.542222-58.311111a27.268741 27.268741 0 0 0-19.968-6.106074 28.178963 28.178963 0 0 0-18.337185 9.784889L249.552593 640.379259H175.748741V206.999704h691.067259v433.398518H493.359407c-15.094519 0-26.927407 12.231111-26.927407 26.908445v132.911407h-158.985481c-15.094519 0-26.927407 12.231111-26.927408 26.908445 0 15.075556 12.250074 26.908444 26.927408 26.908444h364.468148c15.094519 0 26.927407-12.231111 26.927407-26.927407 0-15.075556-12.231111-26.889481-26.927407-26.889482H521.102222V694.613333h373.456593c15.075556 0 26.908444-12.231111 26.908444-26.908444V180.091259a27.306667 27.306667 0 0 0-27.325629-27.306666z m-173.264593 146.773333c17.938963 0 32.616296 14.677333 32.616296 32.616296s-14.677333 32.616296-32.616296 32.616297-32.616296-14.677333-32.616296-32.616297 14.677333-32.616296 32.616296-32.616296z" p-id="14149"></path></svg>