<svg t="1567949497793" class="icon" viewBox="0 0 1024 1024" version="1.1" xmlns="http://www.w3.org/2000/svg" p-id="10661" width="200" height="200"><path d="M64 512c0 247.039 200.961 448 448 448s448-200.961 448-448S759.039 64 512 64 64 264.961 64 512zM535.968 362.24l158.496 160.255c6.145 6.239 9.248 14.369 9.248 22.497 0 8.255-3.169 16.512-9.504 22.751-12.576 12.416-32.801 12.32-45.248-0.256L513.055 430.079 376.383 566.367c-12.513 12.48-32.768 12.447-45.248-0.064-12.513-12.513-12.447-32.768 0.064-45.248l159.359-158.912c0.033-0.033 0.064-0.033 0.096-0.064s0.033-0.064 0.064-0.096c2.976-2.943 6.432-5.056 10.048-6.592 0.127-0.064 0.256-0.224 0.384-0.256C512.767 350.399 526.592 352.768 535.968 362.24z" p-id="10662"></path></svg>