<svg t="1567950310006" class="icon" viewBox="0 0 1024 1024" version="1.1" xmlns="http://www.w3.org/2000/svg" p-id="10794" width="200" height="200"><path d="M512 960c247.039 0 448-200.961 448-448S759.039 64 512 64 64 264.961 64 512 264.961 960 512 960zM501.149 668.865c-0.127-0.033-0.256-0.193-0.384-0.256-3.616-1.536-7.072-3.649-10.048-6.592-0.031-0.033-0.031-0.065-0.064-0.096s-0.064-0.031-0.096-0.064L331.199 502.945c-12.511-12.48-12.576-32.735-0.064-45.248 12.48-12.511 32.735-12.544 45.248-0.064l136.672 136.288 135.904-137.408c12.447-12.576 32.672-12.673 45.248-0.256 6.336 6.239 9.504 14.496 9.504 22.751 0 8.128-3.103 16.258-9.248 22.497L535.968 661.76C526.592 671.232 512.767 673.601 501.149 668.865z" p-id="10795"></path></svg>