<?xml version="1.0" standalone="no"?>
<!DOCTYPE svg PUBLIC "-//W3C//DTD SVG 1.1//EN" "http://www.w3.org/Graphics/SVG/1.1/DTD/svg11.dtd">
<svg t="1567501884950" class="icon" viewBox="0 0 1024 1024" version="1.1"
  xmlns="http://www.w3.org/2000/svg" p-id="9946" width="200" height="200">
  <path d="M698.88 942.08l-46.08-168.96 245.76 30.72 53.76 171.52-253.44-33.28m-76.8-279.04c17.92-23.04 35.84-48.64 53.76-74.24l161.28 17.92 51.2 161.28-243.2-30.72-23.04-74.24z m-212.48 307.2l-38.4-166.4 56.32-7.68c25.6 30.72 43.52 51.2 43.52 51.2s23.04-25.6 53.76-64l66.56-7.68 43.52 168.96-225.28 25.6z m-61.44-276.48c17.92 23.04 35.84 46.08 51.2 66.56l-35.84 5.12-15.36-71.68z m-230.4 243.2l-28.16-163.84 227.84 30.72 35.84 166.4-235.52-33.28zM56.32 583.68l217.6 25.6 33.28 156.16-225.28-28.16-25.6-153.6z m529.92 153.6l-23.04 2.56c5.12-7.68 10.24-12.8 17.92-20.48l5.12 17.92zM473.6 133.12c87.04 0 158.72 71.68 158.72 158.72 0 87.04-71.68 158.72-158.72 158.72s-158.72-71.68-158.72-158.72c0-87.04 71.68-158.72 158.72-158.72z m414.72 458.24c-2.56-7.68-15.36-15.36-28.16-17.92l-163.84-17.92c53.76-87.04 97.28-174.08 97.28-240.64C793.6 143.36 650.24 0 473.6 0S153.6 143.36 153.6 317.44c0 69.12 48.64 166.4 110.08 256l-232.96-25.6c-7.68 0-15.36 0-20.48 2.56-5.12 2.56-7.68 7.68-7.68 12.8l64 386.56c2.56 7.68 12.8 17.92 25.6 17.92L384 1011.2h10.24l281.6-33.28 312.32 43.52h5.12c7.68 0 12.8-2.56 17.92-5.12 5.12-2.56 7.68-10.24 5.12-15.36l-128-409.6z" p-id="9947"></path>
</svg>
