<svg t="1568097465802" class="icon" viewBox="0 0 1024 1024" version="1.1" xmlns="http://www.w3.org/2000/svg" p-id="5483" width="32" height="32"><path d="M335.074245 759.68265c0 63.853669-0.306989 127.809667 0 191.663336 0.204659 44.001727 28.959276 72.142366 74.291287 72.347025 67.128216 0.409318 134.154102 0.306989 201.282318 0.10233 50.75548-0.10233 78.486801-27.322002 78.486801-76.951857 0.10233-126.377053 0.511648-252.754105-0.511648-379.028828-0.10233-18.010009 4.911821-21.898534 22.92183-21.591546 69.379467 1.023296 138.656604 0.10233 207.933742 0.613978 21.489215 0.10233 39.806213-3.888525 49.527525-24.354444 9.721312-20.465919-2.148922-34.996722-15.144781-49.425196L551.603673 22.90955c-26.605695-29.675583-52.597413-29.675583-79.305438 0.306989C337.734814 173.641047 203.273724 324.474873 68.607974 475.001711c-12.58654 14.121484-22.717171 28.140639-13.302848 47.685592 9.516653 19.442623 26.708025 24.252115 47.480933 24.149785 71.426059-0.306989 142.954447 0.204659 214.482836-0.511648 14.633132-0.204659 18.316998 3.786195 18.112339 17.498361-0.716307 65.286283-0.306989 130.572566-0.306989 195.858849z" fill="#FE3995" p-id="5484"></path></svg>