<svg t="1567502475643" class="icon" viewBox="0 0 1170 1024" version="1.1" xmlns="http://www.w3.org/2000/svg" p-id="16156" width="200" height="200"><path d="M24.429714 989.281524a24.624762 24.624762 0 0 1-24.380952-24.429714V24.478476C0 11.02019 10.922667 0 24.380952 0s24.429714 11.02019 24.429715 24.478476v915.943619H1144.929524a24.478476 24.478476 0 0 1 0 48.859429H24.429714z" p-id="16157"></path><path d="M546.084571 828.854857c0 26.038857-21.357714 47.299048-47.396571 47.299048H408.380952a47.494095 47.494095 0 0 1-47.396571-47.299048v-314.026667c0-26.087619 21.357714-47.299048 47.396571-47.299047h90.307048c26.038857 0 47.396571 21.211429 47.396571 47.299047v314.026667zM310.954667 828.854857c0 26.038857-21.211429 47.299048-47.299048 47.299048H173.348571a47.494095 47.494095 0 0 1-47.396571-47.299048v-100.059428c0-26.038857 21.357714-47.299048 47.396571-47.299048h90.307048a47.299048 47.299048 0 0 1 47.299048 47.299048v100.059428zM1028.242286 826.221714c0 27.40419-22.479238 49.883429-49.883429 49.883429h-85.089524a50.127238 50.127238 0 0 1-49.93219-49.883429V417.353143c0-27.355429 22.381714-49.883429 49.93219-49.883429h85.089524c27.40419 0 49.883429 22.528 49.883429 49.883429v408.868571zM781.116952 828.854857c0 26.038857-21.357714 47.299048-47.396571 47.299048h-90.307048a47.494095 47.494095 0 0 1-47.396571-47.299048V611.961905c0-26.038857 21.357714-47.299048 47.396571-47.299048h90.307048c26.038857 0 47.396571 21.26019 47.396571 47.299048v216.84419z" p-id="16158"></path><path d="M990.403048 74.459429l-179.931429 19.602285 59.245714 59.392-195.193904 238.494476L472.015238 204.751238a36.62019 36.62019 0 0 0-49.249524-0.341333L125.025524 473.234286a36.571429 36.571429 0 0 0 49.005714 54.223238l272.920381-246.442667L653.409524 471.966476a36.571429 36.571429 0 0 0 53.00419-3.657143L921.6 205.336381l49.249524 49.200762 19.602286-180.077714z" p-id="16159"></path></svg>