<svg t="1568002778146" class="icon" viewBox="0 0 1024 1024" version="1.1" xmlns="http://www.w3.org/2000/svg" p-id="4595" width="32" height="32"><path d="M512 512m-512 0a512 512 0 1 0 1024 0 512 512 0 1 0-1024 0Z" fill="#FA852E" opacity=".1" p-id="4596"></path><path d="M731.776 615.6032l-175.8208-302.6688c-24.2688-41.7792-63.7952-41.7792-88.064 0L292.096 615.6032C267.8272 657.3824 287.1808 691.2 335.1552 691.2h353.536c48.256 0 67.6096-33.792 43.0848-75.5968z m-218.88 20.352a24.5248 24.5248 0 0 1-24.576-24.7552 24.5248 24.5248 0 1 1 49.1008 0 24.5248 24.5248 0 0 1-24.5504 24.7552z m24.2432-214.7072l-5.4528 115.2v0.256c0 10.7264-8.448 19.2512-19.072 19.2512a19.0464 19.0464 0 0 1-19.0976-19.2512l-5.4528-117.9392v-0.256a24.5248 24.5248 0 1 1 49.0752 0c0.256 1.0752 0.256 1.92 0 2.7392z" fill="#FA852E" p-id="4597"></path></svg>