<svg t="1567520704762" class="icon" viewBox="0 0 1024 1024" version="1.1" xmlns="http://www.w3.org/2000/svg" p-id="6469" width="200" height="200"><path d="M198.1 907.1h40.3c44.6 0 80.9-34.2 80.9-76.3V320.1c0-42.1-36.3-76.3-80.9-76.3h-40.3c-44.6 0-80.9 34.3-80.9 76.3v510.6c0 42.2 36.3 76.4 80.9 76.4z m-16.2-587c0-8.3 7.5-15.3 16.2-15.3h40.3c8.8 0 16.3 7 16.3 15.3v510.6c0 8.3-7.5 15.3-16.3 15.3h-40.3c-8.7 0-16.2-7-16.2-15.3V320.1zM497.3 907.1h40.3c44.6 0 80.9-34.2 80.9-76.3V76.3c0-42.1-36.3-76.3-80.9-76.3h-40.3c-44.7 0-81 34.2-81 76.3v754.4c0 42.2 36.3 76.4 81 76.4zM481 76.3c0-8.4 7.5-15.4 16.3-15.4h40.3c8.8 0 16.2 7 16.2 15.4v754.4c0 8.3-7.4 15.3-16.2 15.3h-40.3c-8.8 0-16.3-7-16.3-15.3V76.3zM792.3 907.1h40.3c44.7 0 81-34.2 81-76.3V499.3c0-42-36.3-76.3-81-76.3h-40.3c-44.6 0-80.9 34.3-80.9 76.3v331.5c0.1 42.1 36.3 76.3 80.9 76.3z m-16.2-407.8c0-8.3 7.5-15.3 16.3-15.3h40.3c8.9 0 16.3 7 16.3 15.3v331.5c0 8.3-7.4 15.3-16.3 15.3h-40.3c-8.8 0-16.3-7-16.3-15.3V499.3zM991.7 963H32.3C14.5 963 0 976.6 0 993.5s14.5 30.5 32.3 30.5h959.4c17.9 0 32.3-13.7 32.3-30.5s-14.5-30.5-32.3-30.5z" fill="#1296DB" p-id="6470"></path></svg>